<svg width="800px" height="800px" fill="none" version="1.1" viewBox="0 -4.5 32 32" xmlns="http://www.w3.org/2000/svg">
	<path d="m8.41 1.37h15.2l3.07 8.81-20.5-0.935z" fill="#fff" stroke-dashoffset=".768" stroke-linecap="round" stroke-linejoin="round" stroke-width=".08"/>
	<path d="m27.1 14.8h-2.46c-0.68 0-1.23 0.551-1.23 1.23v4.92c0 0.68 0.551 1.23 1.23 1.23h2.46c0.68 0 1.23-0.551 1.23-1.23v-4.92c0-0.68-0.551-1.23-1.23-1.23z" fill="url(#f)"/>
	<path d="m7.38 14.8h-2.46c-0.68 0-1.23 0.551-1.23 1.23v4.92c0 0.68 0.551 1.23 1.23 1.23h2.46c0.68 0 1.23-0.551 1.23-1.23v-4.92c0-0.68-0.551-1.23-1.23-1.23z" fill="url(#e)"/>
	<path d="m28.3 9.85h-24.6l3.47-8.33c0.382-0.917 1.28-1.51 2.27-1.51h13.1c0.994 0 1.89 0.598 2.27 1.51zm-3.69-2.46h-17.2l2.05-4.92h13.1z" clip-rule="evenodd" fill="url(#d)" fill-rule="evenodd"/>
	<path d="m3.08 6.15h-1.23c-1.02 0-1.85 0.827-1.85 1.85 0 1.02 0.827 1.85 1.85 1.85h1.23c1.02 0 1.85-0.827 1.85-1.85 0-1.02-0.827-1.85-1.85-1.85z" fill="url(#c)"/>
	<path d="m30.2 6.15h-1.23c-1.02 0-1.85 0.827-1.85 1.85 0 1.02 0.826 1.85 1.85 1.85h1.23c1.02 0 1.85-0.827 1.85-1.85 0-1.02-0.826-1.85-1.85-1.85z" fill="url(#b)"/>
	<path d="m24.6 7.38h-17.2c-2.72 0-4.92 2.2-4.92 4.92v2.46c0 2.72 2.2 4.92 4.92 4.92h17.2c2.72 0 4.92-2.2 4.92-4.92v-2.46c0-2.72-2.2-4.92-4.92-4.92z" fill="url(#a)"/>
	<path d="m7.38 16c1.36 0 2.46-1.1 2.46-2.46 0-1.36-1.1-2.46-2.46-2.46s-2.46 1.1-2.46 2.46c0 1.36 1.1 2.46 2.46 2.46z" fill="#fff"/>
	<path d="m24.6 16c1.36 0 2.46-1.1 2.46-2.46 0-1.36-1.1-2.46-2.46-2.46-1.36 0-2.46 1.1-2.46 2.46 0 1.36 1.1 2.46 2.46 2.46z" fill="#fff"/>
	<path d="m14.8 12.3c0-0.68-0.551-1.23-1.23-1.23s-1.23 0.551-1.23 1.23v2.46c0 0.68 0.551 1.23 1.23 1.23s1.23-0.551 1.23-1.23z" fill="#1f1f1f" fill-opacity=".4"/>
	<path d="m19.7 12.3c0-0.68-0.551-1.23-1.23-1.23-0.68 0-1.23 0.551-1.23 1.23v2.46c0 0.68 0.551 1.23 1.23 1.23 0.68 0 1.23-0.551 1.23-1.23z" fill="#1f1f1f" fill-opacity=".4"/>
	<defs>
		<linearGradient id="f" x1="25.8" x2="25.8" y1="14.8" y2="22.2" gradientUnits="userSpaceOnUse">
			<stop stop-color="#787878" offset="0"/>
			<stop stop-color="#1f1f1f" offset="1"/>
		</linearGradient>
		<linearGradient id="e" x1="6.15" x2="6.15" y1="14.8" y2="22.2" gradientUnits="userSpaceOnUse">
			<stop stop-color="#787878" offset="0"/>
			<stop stop-color="#1f1f1f" offset="1"/>
		</linearGradient>
		<linearGradient id="d" x1="16" x2="16" y2="9.85" gradientUnits="userSpaceOnUse">
			<stop stop-color="#f35c58" offset="0"/>
			<stop stop-color="#e9593a" offset="1"/>
		</linearGradient>
		<linearGradient id="c" x1="2.46" x2="2.46" y1="6.15" y2="9.85" gradientUnits="userSpaceOnUse">
			<stop stop-color="#f77757" offset="0"/>
			<stop stop-color="#e6593c" offset="1"/>
		</linearGradient>
		<linearGradient id="b" x1="29.5" x2="29.5" y1="6.15" y2="9.85" gradientUnits="userSpaceOnUse">
			<stop stop-color="#f77757" offset="0"/>
			<stop stop-color="#e6593c" offset="1"/>
		</linearGradient>
		<linearGradient id="a" x1="16" x2="16" y1="7.38" y2="19.7" gradientUnits="userSpaceOnUse">
			<stop stop-color="#f77757" offset="0"/>
			<stop stop-color="#e6593c" offset="1"/>
		</linearGradient>
	</defs>
</svg>
